<svg width="24" height="22" viewBox="0 0 24 22" fill="none" xmlns="http://www.w3.org/2000/svg">
<path id="Vector" d="M23.9914 10.9792C23.9914 11.7292 23.3664 12.3167 22.6581 12.3167H21.3247L21.3539 18.9917C21.3539 19.1042 21.3456 19.2167 21.3331 19.3292V20.0042C21.3331 20.925 20.5872 21.6708 19.6664 21.6708H18.9997C18.9539 21.6708 18.9081 21.6708 18.8622 21.6667C18.8039 21.6708 18.7456 21.6708 18.6872 21.6708L17.3331 21.6667H16.3331C15.4122 21.6667 14.6664 20.9208 14.6664 20V19V16.3333C14.6664 15.5958 14.0706 15 13.3331 15H10.6664C9.92891 15 9.33307 15.5958 9.33307 16.3333V19V20C9.33307 20.9208 8.58724 21.6667 7.66641 21.6667H6.66641H5.33724C5.27474 21.6667 5.21224 21.6625 5.14974 21.6583C5.09974 21.6625 5.04974 21.6667 4.99974 21.6667H4.33307C3.41224 21.6667 2.66641 20.9208 2.66641 20V15.3333C2.66641 15.2958 2.66641 15.2542 2.67057 15.2167V12.3125H1.33724C0.587239 12.3125 0.00390625 11.7292 0.00390625 10.975C0.00390625 10.6 0.128906 10.2667 0.420573 9.97499L11.0997 0.666662C11.3914 0.374995 11.7247 0.333328 12.0164 0.333328C12.3081 0.333328 12.6414 0.416662 12.8914 0.624995L23.5331 9.97916C23.8664 10.2708 24.0331 10.6042 23.9914 10.9792Z" fill="black"/>
</svg>
