<svg width="13" height="20" viewBox="0 0 13 20" fill="none" xmlns="http://www.w3.org/2000/svg">
<path d="M6.66635 1.09375C6.66635 0.767187 6.39635 0.5 6.06635 0.5C5.73635 0.5 5.46635 0.767187 5.46635 1.09375V2.85645C5.2301 2.86016 4.99385 2.86758 4.76135 2.88984C3.86135 2.96406 2.9651 3.1793 2.23385 3.6543C1.4801 4.14043 0.936351 4.87891 0.737601 5.91797C0.595101 6.67129 0.666351 7.33555 0.951351 7.91074C1.22885 8.47851 1.6826 8.90527 2.2076 9.23555C3.20885 9.86641 4.5926 10.2264 5.8526 10.5529L5.91635 10.5678C7.2551 10.9166 8.45885 11.232 9.28385 11.7516C9.68135 12.0039 9.95135 12.2785 10.1051 12.5902C10.2551 12.8982 10.3226 13.2953 10.2176 13.8445C10.0714 14.6127 9.5276 15.1953 8.60885 15.5516C7.6751 15.9152 6.3926 16.0191 4.93385 15.8113C4.01885 15.6777 2.64635 15.3623 1.5101 14.8762C1.20635 14.7463 0.853851 14.8836 0.722601 15.1879C0.591351 15.4922 0.730101 15.8373 1.0376 15.9672C2.2976 16.5053 3.77885 16.8393 4.76135 16.984H4.7651C5.0051 17.0174 5.24135 17.0434 5.47385 17.0619V18.8988C5.47385 19.2254 5.74385 19.4926 6.07385 19.4926C6.40385 19.4926 6.67385 19.2254 6.67385 18.8988V17.0953C7.54385 17.0693 8.35385 16.9209 9.05135 16.6537C10.2514 16.1898 11.1589 15.3289 11.4026 14.0598C11.5451 13.3064 11.4739 12.6422 11.1889 12.067C10.9114 11.4992 10.4539 11.0725 9.9326 10.7459C8.93135 10.115 7.5476 9.75508 6.2876 9.42851L6.22385 9.41367C4.8851 9.06484 3.68135 8.74941 2.85635 8.22988C2.45885 7.97754 2.18885 7.70293 2.0351 7.39121C1.8851 7.0832 1.8176 6.68613 1.9226 6.13691C2.0576 5.4207 2.41385 4.95684 2.8976 4.64512C3.4001 4.31855 4.07885 4.13672 4.8701 4.06992C6.45635 3.94004 8.29385 4.29258 9.53135 4.58945C9.85385 4.66738 10.1764 4.4707 10.2551 4.15156C10.3339 3.83242 10.1351 3.51328 9.8126 3.43535C8.99135 3.23867 7.85885 3.00117 6.6701 2.90098L6.66635 1.09375Z" fill="black"/>
</svg>
