<svg width="45" height="44" viewBox="0 0 45 44" fill="none" xmlns="http://www.w3.org/2000/svg">
<path d="M14.7093 8.44141C14.5724 8.5783 14.4685 8.7433 14.3818 8.92418L14.372 8.91441L0.663768 39.7945L0.677212 39.808C0.422995 40.3005 0.848321 41.3027 1.71975 42.1754C2.59118 43.0468 3.59338 43.4722 4.08593 43.2179L4.09815 43.2302L34.9783 29.5207L34.9685 29.5097C35.1482 29.4242 35.3132 29.3203 35.4513 29.181C37.3604 27.2719 34.2645 21.0814 28.5385 15.3542C22.8101 9.62695 16.6196 6.53234 14.7093 8.44141Z" fill="#DD2E44"/>
<path d="M16.3886 13.9561L1.00843 39.0185L0.663768 39.7946L0.677212 39.8081C0.422995 40.3006 0.848321 41.3028 1.71975 42.1755C2.0033 42.459 2.29785 42.6741 2.58629 42.8562L21.2774 20.0671L16.3886 13.9561Z" fill="#EA596E"/>
<path d="M28.6252 15.2593C34.3329 20.9694 37.5021 27.056 35.7006 28.855C33.9003 30.6566 27.8137 27.4886 22.1023 21.7809C16.3934 16.0708 13.2255 9.98181 15.0258 8.18151C16.8273 6.38121 22.9139 9.54915 28.6252 15.2593Z" fill="#A0041E"/>
<path d="M23.2202 15.9228C22.977 16.1196 22.6592 16.2223 22.3231 16.1856C21.2622 16.0707 20.37 15.7016 19.7455 15.1186C19.0842 14.5014 18.7579 13.6728 18.8471 12.8429C19.0036 11.386 20.4653 10.0489 22.9574 10.3178C23.9266 10.4217 24.3593 10.11 24.3739 9.96094C24.391 9.81305 24.0354 9.41584 23.0662 9.31073C22.0053 9.19584 21.1131 8.82673 20.4873 8.24374C19.8261 7.62653 19.4986 6.79788 19.589 5.96801C19.7479 4.51114 21.2084 3.17405 23.6981 3.44416C24.4045 3.51994 24.7773 3.37449 24.9349 3.28039C25.0608 3.20339 25.1109 3.13005 25.1158 3.08728C25.1305 2.93939 24.7797 2.54218 23.8081 2.43707C23.1371 2.36373 22.6506 1.76241 22.7252 1.0902C22.7973 0.419212 23.3974 -0.0660021 24.0708 0.00732996C26.5605 0.274992 27.7044 1.89196 27.5468 3.35005C27.3879 4.80936 25.9274 6.144 23.4353 5.87634C22.7289 5.79934 22.3597 5.94601 22.2009 6.04011C22.075 6.11589 22.0236 6.19045 22.0188 6.232C22.0029 6.38111 22.3561 6.7771 23.3277 6.88221C25.8174 7.1511 26.9613 8.76685 26.8037 10.2249C26.646 11.6818 25.1855 13.0189 22.6946 12.7488C21.9882 12.673 21.6166 12.8197 21.4578 12.9126C21.3307 12.9908 21.2818 13.0641 21.2769 13.1057C21.261 13.2535 21.6142 13.6508 22.5846 13.7559C23.2544 13.8292 23.7421 14.4317 23.6675 15.1027C23.6333 15.4376 23.4634 15.7273 23.2202 15.9228Z" fill="#AA8DD8"/>
<path d="M37.9739 27.2258C40.3853 26.545 42.0487 27.6206 42.4447 29.0322C42.8407 30.4426 41.9827 32.2283 39.5725 32.9066C38.6314 33.1706 38.3491 33.6204 38.387 33.7634C38.4285 33.9076 38.9064 34.1447 39.8451 33.8795C42.2552 33.2011 43.9187 34.2767 44.3146 35.6871C44.7131 37.0987 43.8527 38.8819 41.4413 39.5615C40.5014 39.8255 40.2178 40.2765 40.2594 40.4195C40.2997 40.5625 40.7764 40.7996 41.7163 40.5356C42.364 40.3535 43.0411 40.7311 43.2232 41.3801C43.4041 42.0303 43.0265 42.705 42.3762 42.8883C39.9673 43.5666 38.3026 42.4935 37.9042 41.0807C37.5082 39.6703 38.3674 37.8871 40.78 37.2075C41.7211 36.9423 42.0035 36.4938 41.9619 36.3495C41.9228 36.2065 41.4461 35.9682 40.5075 36.2322C38.0949 36.9118 36.4327 35.8387 36.0355 34.4246C35.6382 33.0142 36.4975 31.231 38.9089 30.5502C39.8475 30.2874 40.1298 29.8352 40.0907 29.6934C40.0492 29.5492 39.5737 29.3121 38.6339 29.5761C37.9836 29.7594 37.3102 29.3805 37.1269 28.7316C36.9448 28.0838 37.3237 27.4091 37.9739 27.2258Z" fill="#77B255"/>
<path d="M28.6115 23.9297C28.2522 23.9297 27.8977 23.772 27.6557 23.4713C27.2341 22.9433 27.3208 22.1746 27.8464 21.7529C28.1128 21.539 34.4683 16.5476 43.4502 17.8321C44.1188 17.9274 44.5832 18.5459 44.4879 19.2144C44.3925 19.8817 43.779 20.351 43.1043 20.2508C35.1686 19.124 29.4316 23.6168 29.3754 23.662C29.148 23.8429 28.8791 23.9297 28.6115 23.9297Z" fill="#AA8DD8"/>
<path d="M7.5322 18.8454C7.41609 18.8454 7.29754 18.8283 7.1802 18.7941C6.53366 18.5997 6.167 17.919 6.36133 17.2724C7.74608 12.6611 9.00128 5.30218 7.45887 3.38332C7.28654 3.16577 7.02621 2.95189 6.42977 2.99711C5.28335 3.08511 5.39212 5.50384 5.39335 5.52829C5.44468 6.20172 4.93869 6.78838 4.26648 6.83849C3.58327 6.88004 3.00639 6.38383 2.95628 5.71039C2.83039 4.02498 3.35471 0.778812 6.24644 0.560038C7.53709 0.462262 8.60896 0.91081 9.3655 1.8519C12.2633 5.45862 9.3215 15.9146 8.70307 17.9752C8.54418 18.5044 8.05775 18.8454 7.5322 18.8454Z" fill="#77B255"/>
<path d="M31.6658 12.734C32.6783 12.734 33.4991 11.9132 33.4991 10.9007C33.4991 9.88818 32.6783 9.06738 31.6658 9.06738C30.6533 9.06738 29.8325 9.88818 29.8325 10.9007C29.8325 11.9132 30.6533 12.734 31.6658 12.734Z" fill="#5C913B"/>
<path d="M2.94413 23.7338C4.29413 23.7338 5.38853 22.6394 5.38853 21.2894C5.38853 19.9394 4.29413 18.845 2.94413 18.845C1.59412 18.845 0.499725 19.9394 0.499725 21.2894C0.499725 22.6394 1.59412 23.7338 2.94413 23.7338Z" fill="#9266CC"/>
<path d="M40.2214 24.9562C41.2339 24.9562 42.0547 24.1354 42.0547 23.1229C42.0547 22.1103 41.2339 21.2896 40.2214 21.2896C39.2089 21.2896 38.3881 22.1103 38.3881 23.1229C38.3881 24.1354 39.2089 24.9562 40.2214 24.9562Z" fill="#5C913B"/>
<path d="M29.2216 39.6224C30.2341 39.6224 31.0549 38.8016 31.0549 37.7891C31.0549 36.7766 30.2341 35.9558 29.2216 35.9558C28.2091 35.9558 27.3883 36.7766 27.3883 37.7891C27.3883 38.8016 28.2091 39.6224 29.2216 39.6224Z" fill="#5C913B"/>
<path d="M34.7215 6.62294C36.0715 6.62294 37.1659 5.52854 37.1659 4.17853C37.1659 2.82853 36.0715 1.73413 34.7215 1.73413C33.3715 1.73413 32.2771 2.82853 32.2771 4.17853C32.2771 5.52854 33.3715 6.62294 34.7215 6.62294Z" fill="#FFCC4D"/>
<path d="M40.2214 11.5118C41.2339 11.5118 42.0547 10.691 42.0547 9.67852C42.0547 8.66601 41.2339 7.84521 40.2214 7.84521C39.2089 7.84521 38.3881 8.66601 38.3881 9.67852C38.3881 10.691 39.2089 11.5118 40.2214 11.5118Z" fill="#FFCC4D"/>
<path d="M36.5547 16.4007C37.5672 16.4007 38.388 15.5799 38.388 14.5674C38.388 13.5549 37.5672 12.7341 36.5547 12.7341C35.5422 12.7341 34.7214 13.5549 34.7214 14.5674C34.7214 15.5799 35.5422 16.4007 36.5547 16.4007Z" fill="#FFCC4D"/>
<path d="M9.66613 29.8448C10.6786 29.8448 11.4994 29.024 11.4994 28.0115C11.4994 26.999 10.6786 26.1782 9.66613 26.1782C8.65362 26.1782 7.83282 26.999 7.83282 28.0115C7.83282 29.024 8.65362 29.8448 9.66613 29.8448Z" fill="#FFCC4D"/>
</svg>
