<svg width="20" height="18" viewBox="0 0 20 18" fill="none" xmlns="http://www.w3.org/2000/svg">
<g clip-path="url(#clip0_28_1826)">
<path d="M17.1858 2.14817C17.7799 2.14817 18.2599 2.62815 18.2599 3.22224V13.963C18.2599 14.5571 17.7799 15.0371 17.1858 15.0371H2.14879C1.55469 15.0371 1.07471 14.5571 1.07471 13.963V3.22224C1.07471 2.62815 1.55469 2.14817 2.14879 2.14817H17.1858ZM2.14879 1.0741C0.963951 1.0741 0.000640869 2.03741 0.000640869 3.22224V13.963C0.000640869 15.1478 0.963951 16.1111 2.14879 16.1111H17.1858C18.3707 16.1111 19.334 15.1478 19.334 13.963V3.22224C19.334 2.03741 18.3707 1.0741 17.1858 1.0741H2.14879ZM3.22286 10.2037C3.22286 10.4991 3.46453 10.7408 3.7599 10.7408H15.5747C15.8701 10.7408 16.1118 10.4991 16.1118 10.2037C16.1118 9.90836 15.8701 9.66669 15.5747 9.66669H3.7599C3.46453 9.66669 3.22286 9.90836 3.22286 10.2037ZM3.22286 12.3519C3.22286 12.6472 3.46453 12.8889 3.7599 12.8889H5.90805C6.20342 12.8889 6.44509 12.6472 6.44509 12.3519C6.44509 12.0565 6.20342 11.8148 5.90805 11.8148H3.7599C3.46453 11.8148 3.22286 12.0565 3.22286 12.3519ZM8.0562 11.8148C7.76083 11.8148 7.51916 12.0565 7.51916 12.3519C7.51916 12.6472 7.76083 12.8889 8.0562 12.8889H12.3525C12.6479 12.8889 12.8895 12.6472 12.8895 12.3519C12.8895 12.0565 12.6479 11.8148 12.3525 11.8148H8.0562ZM13.4266 4.83336H15.5747C15.7224 4.83336 15.8432 4.95419 15.8432 5.10187V6.71299C15.8432 6.86067 15.7224 6.9815 15.5747 6.9815H13.4266C13.2789 6.9815 13.158 6.86067 13.158 6.71299V5.10187C13.158 4.95419 13.2789 4.83336 13.4266 4.83336ZM12.084 5.10187V6.71299C12.084 7.45477 12.6848 8.05558 13.4266 8.05558H15.5747C16.3165 8.05558 16.9173 7.45477 16.9173 6.71299V5.10187C16.9173 4.36009 16.3165 3.75928 15.5747 3.75928H13.4266C12.6848 3.75928 12.084 4.36009 12.084 5.10187Z" fill="black"/>
</g>
<defs>
<clipPath id="clip0_28_1826">
<rect width="19.3333" height="17.1852" fill="white" transform="translate(0.000640869)"/>
</clipPath>
</defs>
</svg>
