<svg width="20" height="18" viewBox="0 0 20 18" fill="none" xmlns="http://www.w3.org/2000/svg">
<path fill-rule="evenodd" clip-rule="evenodd" d="M14.0097 4.0028C14.0097 6.21348 12.1987 8.00559 9.96482 8.00559C7.73092 8.00559 5.91998 6.21348 5.91998 4.0028C5.91998 1.79211 7.73092 0 9.96482 0C12.1987 0 14.0097 1.79211 14.0097 4.0028ZM12.6614 4.0028C12.6614 5.47659 11.4541 6.67133 9.96482 6.67133C8.47555 6.67133 7.26826 5.47659 7.26826 4.0028C7.26826 2.52901 8.47555 1.33427 9.96482 1.33427C11.4541 1.33427 12.6614 2.52901 12.6614 4.0028Z" fill="#001522"/>
<path d="M9.96482 10.007C5.60018 10.007 1.8814 12.5611 0.464821 16.1393C0.809909 16.4784 1.17343 16.7992 1.55378 17.1C2.60863 13.8148 5.91777 11.3413 9.96482 11.3413C14.0119 11.3413 17.321 13.8148 18.3759 17.1C18.7562 16.7992 19.1197 16.4784 19.4648 16.1393C18.0482 12.5611 14.3295 10.007 9.96482 10.007Z" fill="#001522"/>
</svg>
